/* XPM */
static char *_fd7546c352f450ceba05519d39f7d48ZApAzTDQhJ9kCl5S[] = {
/* columns rows colors chars-per-pixel */
"32 32 255 2 ",
"   c None",
".  c #0D0B87",
"X  c #0F0C87",
"o  c #010088",
"O  c #000089",
"+  c #010089",
"@  c #020189",
"#  c #00008A",
"$  c #01008A",
"%  c #02008A",
"&  c #02018A",
"*  c #03028A",
"=  c #03038A",
"-  c #040289",
";  c #040389",
":  c #060388",
">  c #04038A",
",  c #050489",
"<  c #070588",
"1  c #060589",
"2  c #070689",
"3  c #05048A",
"4  c #05058A",
"5  c #00018C",
"6  c #01038C",
"7  c #01058E",
"8  c #00058F",
"9  c #04068C",
"0  c #080789",
"q  c #04088E",
"w  c #0A0888",
"e  c #0A0988",
"r  c #0A0989",
"t  c #0B0A88",
"y  c #0B0A89",
"u  c #0B0B89",
"i  c #08088A",
"p  c #08098B",
"a  c #0C0A88",
"s  c #0C0B88",
"d  c #0C0B89",
"f  c #0D0C88",
"g  c #0D0C89",
"h  c #0E0D88",
"j  c #0E0D89",
"k  c #0F0E88",
"l  c #0F0E89",
"z  c #0F0F89",
"x  c #100F88",
"c  c #0F108A",
"v  c #0D148E",
"b  c #121187",
"n  c #151487",
"m  c #151587",
"M  c #161587",
"N  c #171787",
"B  c #181787",
"V  c #181887",
"C  c #191887",
"Z  c #191987",
"A  c #1A1987",
"S  c #1B1A87",
"D  c #1B1B87",
"F  c #1C1B87",
"G  c #1C1C87",
"H  c #1D1C87",
"J  c #1F1E86",
"K  c #1E1E87",
"L  c #1F1E87",
"P  c #111088",
"I  c #121188",
"U  c #131288",
"Y  c #141388",
"T  c #151488",
"R  c #161588",
"E  c #161688",
"W  c #171688",
"Q  c #181788",
"!  c #071092",
"~  c #081192",
"^  c #0B1995",
"/  c #0C1995",
"(  c #011398",
")  c #011399",
"_  c #011499",
"`  c #01149A",
"'  c #211E85",
"]  c #201E87",
"[  c #1E2089",
"{  c #1E218A",
"}  c #0D219A",
"|  c #0A249E",
" . c #1B2690",
".. c #162E9B",
"X. c #1D3097",
"o. c #18359F",
"O. c #202086",
"+. c #202087",
"@. c #212087",
"#. c #222186",
"$. c #222187",
"%. c #232286",
"&. c #232386",
"*. c #232387",
"=. c #252486",
"-. c #262586",
";. c #272586",
":. c #282786",
">. c #292885",
",. c #292886",
"<. c #2C2B85",
"1. c #2E2D85",
"2. c #2F2E84",
"3. c #2F2F85",
"4. c #353283",
"5. c #313185",
"6. c #323084",
"7. c #323185",
"8. c #333285",
"9. c #303187",
"0. c #343384",
"q. c #343385",
"w. c #343485",
"e. c #353485",
"r. c #363584",
"t. c #373684",
"y. c #383684",
"u. c #393984",
"i. c #3A3A84",
"p. c #3C3C84",
"a. c #303489",
"s. c #343D8C",
"d. c #001CA1",
"f. c #001FA2",
"g. c #0120A3",
"h. c #0525A3",
"j. c #072CA7",
"k. c #022AAA",
"l. c #002BAC",
"z. c #032FAD",
"x. c #0A34AB",
"c. c #1534A2",
"v. c #1435A3",
"b. c #1239A7",
"n. c #1E3FA3",
"m. c #1839A4",
"M. c #153BA8",
"N. c #123EAD",
"B. c #0031B0",
"V. c #0132B1",
"C. c #0031B2",
"Z. c #033CB6",
"A. c #043EB8",
"S. c #31509E",
"D. c #0645BB",
"F. c #064ABF",
"G. c #0B4BBC",
"H. c #2649A3",
"J. c #2152AF",
"K. c #2257B3",
"L. c #2E6AB7",
"P. c #2561B8",
"I. c #024CC4",
"U. c #0050C9",
"Y. c #0051CA",
"T. c #0B5BC8",
"R. c #005AD0",
"E. c #005AD1",
"W. c #1765C6",
"Q. c #1966C6",
"!. c #1E6BC5",
"~. c #1A6FCC",
"^. c #0061D6",
"/. c #0467D7",
"(. c #0068DC",
"). c #006CDF",
"_. c #0874DE",
"`. c #1370D1",
"'. c #1677D5",
"]. c #167FDB",
"[. c #216FC5",
"{. c #2977C5",
"}. c #2077CC",
"|. c #217CD0",
" X c #0077E7",
".X c #0778E1",
"XX c #047BE7",
"oX c #007AEA",
"OX c #007EEC",
"+X c #2F83CA",
"@X c #3380C4",
"#X c #3381C4",
"$X c #3382C5",
"%X c #3481C4",
"&X c #2985D0",
"*X c #298ED7",
"=X c #268FDA",
"-X c #208DDE",
";X c #3096D8",
":X c #0383EE",
">X c #0D8EEE",
",X c #1C8DE1",
"<X c #128CE8",
"1X c #0085F2",
"2X c #0085F3",
"3X c #0087F3",
"4X c #0087F4",
"5X c #0489F1",
"6X c #078CF1",
"7X c #0088F4",
"8X c #0089F5",
"9X c #008BF6",
"0X c #008CF7",
"qX c #028DF7",
"wX c #008CF8",
"eX c #008EFA",
"rX c #008FFA",
"tX c #0091FB",
"yX c #0092FC",
"uX c #0095FF",
"iX c #0097FF",
"pX c #0199FF",
"aX c #009AFF",
"sX c #019AFF",
"dX c #029AFF",
"fX c #039BFF",
"gX c #029CFF",
"hX c #0DA6FF",
"jX c #0EA6FF",
"kX c #1BA1F1",
"lX c #19A2F4",
"zX c #13A7FD",
"xX c #10A7FF",
"cX c #15ACFF",
"vX c #14ADFF",
"bX c #16AFFF",
"nX c #1DACF8",
"mX c #21A4EF",
"MX c #28ACEF",
"NX c #22A9F2",
"BX c #28AEF1",
"VX c #27B4F6",
"CX c #2BB0F0",
"ZX c #28B3F5",
"AX c #20B3FB",
"SX c #21B4FB",
"DX c #22B9FE",
"FX c #2DBFFA",
"GX c #28BCFC",
"HX c #29BFFD",
"JX c #2CC3FE",
"KX c #2BC4FF",
"LX c #3DC3F0",
"PX c #32C6FB",
"IX c #35C8FA",
/* pixels */
"                                                                ",
"                                                                ",
"                                                                ",
"                                                                ",
"                                                                ",
"                            1 x l T                             ",
"                      l w ] 1 x l H k ; %.                      ",
"                    1.,.x 9.T T M 9.M b e.P                     ",
"                O.# w S -.y.w -.-.H X F 1 # g 1.                ",
"                D # # Q a.S.|.x.{.F.v q.; # l [                 ",
"              l Q g # / +X}.HX~.MXHXT.| 8 # l P B               ",
"            # -.O.x 1 K.NXFXDXSXJXcXIXMXj.d.p D H 0             ",
"            l M l g n.=XZXcXkX,X.X>XcXSX`.D.9 1 ] g             ",
"            1.D # 6.X.&XnXpXY.5 # g.4XgXIX%X1 # T Q             ",
"          # X 0 # . h.Z._.gXR.( ( V.0XpX6X..q.# T T g           ",
"          # l 1 U O.~ G.BXhXrX7X7XtXiXoXI.c.%.P D e.O.          ",
"          P H T U ] m.!.XXpXOX^.^.).tXqX[.L.[ p.$.T l           ",
"          x T T l l # Q.zXiXU.# # 8 (.gXVXP.c $.D H M           ",
"            u.D l . v.#X<XpXE.( ) f. XgXKX-X8 T D 9.            ",
"            P H U . } #XLXhXrX4X3XrXiXfXkXb.] T T l             ",
"            # Q U 0 H.{.'.:XiX3XyX7X3X5X*X .y.Y M g             ",
"              T b :.e.J.v.V.zXW.mX/.V.l.9 0 T 0 w               ",
"                O.e.x 1 : N.;XM.,Xz.5 Y ; 0 S i.                ",
"                P S ; $.,.~ / # h.Z.> e.l 5 T q.                ",
"                    # l c -.T 1.H s.x Y 1 #                     ",
"                      w T :.P T P H D T #                       ",
"                            1 x w D                             ",
"                                                                ",
"                                                                ",
"                                                                ",
"                                                                ",
"                                                                "
};
