/* XPM */
static char *bff97b0915b347d6ca23c24843e809e4BRxyVZ0EwEekz4SR[] = {
/* columns rows colors chars-per-pixel */
"16 16 85 1 ",
"  c None",
". c #060589",
"X c #090788",
"o c #0A0888",
"O c #0A0989",
"+ c #0C0B89",
"@ c #0D0C89",
"# c #0F0E88",
"$ c #0F0E89",
"% c #0A0E8D",
"& c #131087",
"* c #131187",
"= c #141287",
"- c #141387",
"; c #171687",
": c #181687",
"> c #191887",
", c #1A1886",
"< c #1B1886",
"1 c #1A1887",
"2 c #1B1987",
"3 c #1B1A87",
"4 c #1C1B87",
"5 c #1D1D87",
"6 c #1E1D87",
"7 c #1F1E86",
"8 c #1F1E87",
"9 c #101088",
"0 c #111088",
"q c #121188",
"w c #131288",
"e c #121289",
"r c #10108A",
"t c #141388",
"y c #161688",
"u c #171688",
"i c #171788",
"p c #10158D",
"a c #15198C",
"s c #171C8C",
"d c #1A1B89",
"f c #051B9C",
"g c #1C208B",
"h c #132396",
"j c #10299D",
"k c #20248B",
"l c #2B3A92",
"z c #0F3CAD",
"x c #1433A2",
"c c #0B3FB2",
"v c #003DBA",
"b c #1C40A4",
"n c #1C40A5",
"m c #1641AB",
"M c #1446B0",
"N c #155BBF",
"B c #2548A4",
"V c #2055B2",
"C c #205CB7",
"Z c #0853C4",
"A c #0051C9",
"S c #0053CB",
"D c #0056CE",
"F c #035BCF",
"G c #0D64CE",
"H c #1065CC",
"J c #1A72CD",
"K c #0060D6",
"L c #0061D7",
"P c #1B78D1",
"I c #2074CA",
"U c #1C83D9",
"Y c #2792DC",
"T c #0484EE",
"R c #0882E9",
"E c #0B8BED",
"W c #0089F5",
"Q c #0D90F0",
"! c #0993F5",
"~ c #0592F8",
"^ c #169FF3",
"/ c #119FF8",
"( c #17A5F8",
") c #22A5EE",
"_ c #20AAF4",
/* pixels */
"                ",
"                ",
"                ",
"     8,&,-4     ",
"    +wlbnsOt    ",
"   w&jY)(Pfw-   ",
"   iwC(GZ(Iri   ",
"   @@zQKDWZd,   ",
"   itm!DvTIk7   ",
"   8@V^LA~Ua8   ",
"   @dBHERFx:w   ",
"    8whmcpo8    ",
"     O4idi.     ",
"                ",
"                ",
"                "
};
