/* XPM */
static char *eca890e0d55646c2ae1e16023a70c6c34Wj6x9lNj2d3nfry[] = {
/* columns rows colors chars-per-pixel */
"64 64 164 2 ",
"   c None",
".  c #66667F",
"X  c #6C6C7F",
"o  c #73737E",
"O  c #79797D",
"+  c #010087",
"@  c #090587",
"#  c #0A0987",
"$  c #01018A",
"%  c #080789",
"&  c #04088D",
"*  c #0B0B89",
"=  c #100F87",
"-  c #100F88",
";  c #151487",
":  c #181787",
">  c #1C1B87",
",  c #141388",
"<  c #181788",
"1  c #191988",
"2  c #000791",
"3  c #030C93",
"4  c #051395",
"5  c #081796",
"6  c #0C1C97",
"7  c #01159B",
"8  c #02199D",
"9  c #0B1E99",
"0  c #201F87",
"q  c #0E239A",
"w  c #11269A",
"e  c #122B9D",
"r  c #14309F",
"t  c #232286",
"y  c #282786",
"u  c #2B2A86",
"i  c #302F85",
"p  c #25308F",
"a  c #333385",
"s  c #383784",
"d  c #3D3C84",
"f  c #001FA3",
"g  c #0123A5",
"h  c #0429A7",
"j  c #0127A9",
"k  c #012CAC",
"l  c #0633AE",
"z  c #1533A1",
"x  c #193DA5",
"c  c #133BA9",
"v  c #0134B3",
"b  c #0139B6",
"n  c #0A3CB1",
"m  c #013DB9",
"M  c #3A5399",
"N  c #1746AE",
"B  c #1C45A9",
"V  c #1D4AAD",
"C  c #0241BC",
"Z  c #1546B0",
"A  c #1953B6",
"S  c #204EAD",
"D  c #2152AF",
"F  c #245BB4",
"G  c #2862B6",
"H  c #2B6CBC",
"J  c #2F73BD",
"K  c #3577BB",
"L  c #3178BF",
"P  c #444483",
"I  c #484783",
"U  c #4B4B83",
"Y  c #555581",
"T  c #5A5981",
"R  c #626280",
"E  c #0146C1",
"W  c #044CC2",
"Q  c #0553C7",
"!  c #0D55C2",
"~  c #0054CB",
"^  c #035ACE",
"/  c #145AC0",
"(  c #015CD1",
")  c #0F63CB",
"_  c #1364C8",
"`  c #0163D7",
"'  c #0065D9",
"]  c #016BDD",
"[  c #1070D4",
"{  c #2A74C2",
"}  c #2F7FC7",
"|  c #006EE0",
" . c #0274E3",
".. c #007EEC",
"X. c #1781DC",
"o. c #1F88DB",
"O. c #2C81CA",
"+. c #3786C5",
"@. c #368AC9",
"#. c #3A8EC9",
"$. c #3B93CC",
"%. c #3E9ACF",
"&. c #2F94D6",
"*. c #2C94DA",
"=. c #35A0DB",
"-. c #0484EE",
";. c #0E8DED",
":. c #1D96E7",
">. c #0085F2",
",. c #008AF5",
"<. c #088FF4",
"1. c #018EF9",
"2. c #0096FF",
"3. c #039BFF",
"4. c #089EFF",
"5. c #1FA2EF",
"6. c #0CA4FF",
"7. c #0EA8FF",
"8. c #10A6FE",
"9. c #15AAFD",
"0. c #18AEFE",
"q. c #1CA3F2",
"w. c #1AB2FE",
"e. c #2CA1E3",
"r. c #2DACEB",
"t. c #3AADE1",
"y. c #3DB2E2",
"u. c #35B6EC",
"i. c #20A5F0",
"p. c #23ACF3",
"a. c #2AB0F0",
"s. c #20B7FE",
"d. c #24BCFF",
"f. c #41A3D3",
"g. c #46ACD7",
"h. c #4CBCDE",
"j. c #2BC3FF",
"k. c #30C7FE",
"l. c #33CCFF",
"z. c #3BD3FD",
"x. c #3FDBFF",
"c. c #46C1E6",
"v. c #4CCEEC",
"b. c #4DC3E2",
"n. c #51CAE4",
"m. c #4DD1ED",
"M. c #52D2EA",
"N. c #56DAEC",
"B. c #59DDED",
"V. c #4EDAF3",
"C. c #41D5FA",
"Z. c #42DAFD",
"A. c #46DFFE",
"S. c #44DBFC",
"D. c #47E3FF",
"F. c #49E1FD",
"G. c #4DE5FC",
"H. c #5BE7F2",
"J. c #5DEDF5",
"K. c #50E5FA",
"L. c #51EAFD",
"P. c #55EBFB",
"I. c #58EDFA",
"U. c #5CF4FC",
/* pixels */
"                                                                                                                                ",
"                                                                                                                                ",
"                                                                                                                                ",
"                                                                                                                                ",
"                                                                                                                                ",
"                                                                                                                                ",
"                                                                                                                                ",
"                                                                                                                                ",
"                                                                                                                                ",
"                                                                                                                                ",
"                                                                                                                                ",
"                                                    $ u % $ $ 0 < $ : 0 $ $                                                     ",
"                                                $ $ * a % $ $ t < $ < u $ $ $ $                                                 ",
"                                            , $ % > t a $ $ $ > < $ < a t * $ $ < a                                             ",
"                                        % Y d % y - * d , $ $ 0 , $ > t % t t $ d o < $                                         ",
"                                      $ % . U , < $ y O a $ $ u > $ U R * $ t % y I * $ $                                       ",
"                                  : $ $ $ * % , < $ > d < $ % . T $ d Y % $ t % $ $ $ $ $ - a                                   ",
"                                s y $ $ $ $ $ a I t R u $ $ $ d a + $ $ $ % u , $ $ $ $ $ < P >                                 ",
"                                : > $ $ $ $ $ U R u Y M V l g & x N k 7 $ : X P $ $ $ $ $ , a u                                 ",
"                              < , : $ $ $ $ $ , > * $ #.U.7.` 4 n.A.2.E & * P y $ $ $ $ $ , t $ :                               ",
"                            $ < , < $ $ $ $ $ $ V h.r _ j.z.&.3 :.l.C.q.] 3 $ $ $ $ $ $ $ , t $ % a                             ",
"                          $ $ < * y : < $ $ & e O.K.H [ 6.A.t.h ;.d.L.d.1.A c k 3 $ $ $ $ , t $ * u $                           ",
"                          $ % a u % % t $ $ q B.C.4.S.G.3.3.2.2.G.F.4.2.6.P.C.1.v $ $ $ $ , u % * u $                           ",
"                        $ $ - R T $ % > $ + 3 J o.2.0.j.S.d.d.S.j.w.2.j.A.k.k.z.Z 2 ~ v $ $ > a y u $ $                         ",
"                        % $ $ t > $ $ > $ F } W [ z.8.6.G.j.j.G.6.2.2.j.S.6.w.U.F f >.~ $ $ $ % a a $ $                         ",
"                        % y , $ $ $ % > $ f.P.8.j.I.w.2.2.' ^ ^ ^ ^ ' 1.2.2.3.8.<. .h 4 $ $ $ $ % u $ ,                         ",
"                      $ < R P $ $ $ < T 0 6 V V.l.6.2.2.,.8 + $ $ $ $ b 2.2.2.2.l.V.b.H $ $ $ $ * u $ u ,                       ",
"                      $ % P t $ $ $ t X i f n g.r.2.2.2.,.8 $ $ $ $ $ 3 ..3.2.2.z.K.N.{ $ $ $ $ * u % y $                       ",
"                      $ $ > % $ $ $ % , % ` >.4 C 2.2.2.,.8 $ $ + $ + 7 >.2.2.2.3.-.9 , a < $ $ * i & y $                       ",
"                      $ $ t % $ $ $ $ $ $ k b 3 C 3.2.2.1.k 7 7 7 7 g ' 2.2.2.2.2.-.3 > O d $ $ * u $ y $                       ",
"                      $ $ t % $ $ % , % $ $ 3 ' i.L.0.2.2.,.,.,.,.,.2.2.2.2.2.-.>.] 2 @ d < $ $ * u * d ,                       ",
"                      $ $ 0 % $ $ s R > $ e Z | i.G.0.2.2.2.2.2.2.2.2.2.2.2...C g 8 D z t % < < - u t O a                       ",
"                      $ $ t * $ $ u Y , $ f.N.6 C 3.2.2.2.2.2.2.2.2.2.2.2.2.2.1.l q H.$.y @ Y R < u , a <                       ",
"                      u u d u u $ % t $ $ S { ~ ] 2.2.2.1.E v v v v b ( 2.2.2.2.e.%.G z y > a P , u $ $ $                       ",
"                      % $ $ % u % % t $ $ $ 4 <.3.2.2.2.,.8 + + $ + + $ ~ 2.2.2.x.m.q & % 0 a t % u $ $ $                       ",
"                      % > , $ u % % 0 $ $ + q V.l.2.2.2.,.8 $ $ $ $ $ $ k 2.2.2.3.9.M.{ $ $ > t * u < U y                       ",
"                      t o d $ u $ % > $ $ r F g.r.2.2.2.,.8 $ $ $ $ + + E 2.2.2.8.d.D.O.$ $ , 0 * u t R P                       ",
"                      : U u % u % % t $ $ f.B.6 m 2.2.2.1.k 7 8 7 8 8 m >.2.2.2.A.I.6.^ $ $ , > % u % a <                       ",
"                        < 0 t s % % t $ $ B J $.y.z.9.2.2.1.,.,.,.,.1.2.2.2.2.2.w.a.W g & $ , > * u $ t                         ",
"                        $ $ $ u * t , $ $ 3 z M.J.U.w.2.2.2.2.2.2.2.2.2.2.2.2.2.4.-.2 y T < , t * u $ $                         ",
"                        $ $ $ a u * $ $ $ $.n.z ! 7.3.2.2.2.2.2.2.2.2.2.2.2.2.2.x.v.4 u R y u < * u $ $                         ",
"                          $ $ i * $ $ , t { f.F / ` ' ..2.2.>.] 1.2.2. .` 1.,.' &.$.* # d i , $ % a %                           ",
"                          $ $ u % $ $ d R > e H.%.$ $ ~ 2.3.] 4 ;.6.2.b 2 ..| & $ $ $ % i % $ $ $ : a                           ",
"                            $ u & > u t U - & S z $ $ ~ 6.x.=.6 m.x.3.b $ k j $ $ $ $ & u $ $ % $ $                             ",
"                              u % U o < 0 $ $ $ $ $ $ ) w.c.+.5 u.r.( g $ $ $ $ $ $ $ % t % P P %                               ",
"                              u $ > d , 0 & $ @ % % $ @.H.z $ 3 ..] & $ $ $ : u % $ $ % u % Y T #                               ",
"                                $ % a 0 * $ $ I T % $ e V 3 $ & g C ] k $ $ P O < $ $ $ 0 u i u                                 ",
"                                  < u $ $ $ $ P Y @ $ $ + $ $ $ $ j ..k $ $ > d % $ $ $ $ - a                                   ",
"                                    : $ $ $ $ , : $ % t , $ * I u 2 p U , $ % t $ $ $ $ $ $                                     ",
"                                        $ $ $ , < $ : O d $ < X P $ s o < $ % t $ $ $ $                                         ",
"                                          $ $ = y $ % U > $ $ i < $ * s % % t > $ $ $                                           ",
"                                              $ < y < u % $ $ t * $ % i < y < $ $                                               ",
"                                                    u d % $ $ y , $ % s t @                                                     ",
"                                                                                                                                ",
"                                                                                                                                ",
"                                                                                                                                ",
"                                                                                                                                ",
"                                                                                                                                ",
"                                                                                                                                ",
"                                                                                                                                ",
"                                                                                                                                ",
"                                                                                                                                ",
"                                                                                                                                ",
"                                                                                                                                "
};
